<?xml version="1.0" encoding="utf-8"?>
<!-- Generator: Adobe Illustrator 27.5.0, SVG Export Plug-In . SVG Version: 6.00 Build 0)  -->
<svg version="1.1" id="katman_1" xmlns="http://www.w3.org/2000/svg" xmlns:xlink="http://www.w3.org/1999/xlink" x="0px" y="0px"
	 viewBox="0 0 841.89 595.28" style="enable-background:new 0 0 841.89 595.28;" xml:space="preserve">
<style type="text/css">
	.st0{fill-rule:evenodd;clip-rule:evenodd;fill:#F07F1A;}
	.st1{fill-rule:evenodd;clip-rule:evenodd;fill:#5AB24F;}
	.st2{fill-rule:evenodd;clip-rule:evenodd;fill:#FFFFFF;}
	.st3{fill-rule:evenodd;clip-rule:evenodd;fill:#4CBBEC;}
	.st4{fill-rule:evenodd;clip-rule:evenodd;fill:#566778;}
</style>
<circle class="st0" cx="110.85" cy="300.39" r="31.26"/>
<circle class="st1" cx="164.43" cy="300.39" r="31.26"/>
<path class="st2" d="M137.64,284.28c2.93,4.86,4.47,10.43,4.47,16.11c0.01,5.67-1.53,11.24-4.46,16.11
	c-2.84-4.7-4.47-10.21-4.47-16.11c-0.01-5.46,1.42-10.82,4.13-15.55L137.64,284.28z"/>
<circle class="st3" cx="218.02" cy="300.39" r="31.26"/>
<path class="st2" d="M191.22,284.28c2.93,4.86,4.47,10.43,4.47,16.11c0.01,5.67-1.53,11.24-4.46,16.11
	c-2.84-4.7-4.47-10.21-4.47-16.11c-0.01-5.46,1.42-10.82,4.13-15.55L191.22,284.28z"/>
<path class="st4" d="M355.11,278.7c17.88,0,25.47,11.6,25.47,25.29v5.67H344.9c0.78,6.11,4.27,9.42,10.38,9.42
	c4.45,0,6.89-1.92,8.11-4.8h16.83c-2.79,10.64-10.64,17.36-25.38,17.36c-17.53,0-25.73-9.77-25.73-25.38v-1.48
	C329.12,288.56,339.33,278.7,355.11,278.7L355.11,278.7z M484.24,278.7c17.88,0,25.47,11.6,25.47,25.29v5.67h-35.67
	c0.79,6.11,4.27,9.42,10.38,9.42c4.45,0,6.89-1.92,8.11-4.8h16.83c-2.79,10.64-10.64,17.36-25.38,17.36
	c-17.53,0-25.73-9.77-25.73-25.38v-1.48C458.25,288.56,468.46,278.7,484.24,278.7L484.24,278.7z M571.28,263.18v24.68
	c2.7-5.76,7.76-9.16,14.83-9.16c11.34,0.09,19.71,7.85,19.71,24.94v1.57c0,17.18-7.59,26.43-20.06,26.43
	c-7.67,0-12.65-3.84-15.09-9.77l-1.22,8.46h-13.87v-67.16H571.28L571.28,263.18z M636.26,278.7c15.18,0,25.47,9.07,25.47,25.99v1.57
	c0,16.83-10.12,25.38-25.56,25.38c-16.4,0-25.47-8.55-25.47-25.38v-1.57C610.7,287.51,621.34,278.7,636.26,278.7L636.26,278.7z
	 M762.47,263.18v67.16h-13.52l-1.48-8.81c-2.53,5.93-7.59,9.77-15.35,9.77c-12.21,0-19.89-8.81-19.89-26.17v-1.48
	c0-17.01,8.37-24.86,19.98-24.86c7.33,0,12.12,3.05,14.66,8.2v-23.82H762.47z M298.42,267.8v46.93h26.25v15.61h-42.65V267.8H298.42z
	 M406.3,267.1v12.65h12.52c1.67,0.01,3.34-0.17,4.97-0.52c3.23-0.43,4.45-1.83,4.97-6.11c0.26-2.09,0.43-3.93,0.52-6.02h13.08v12.65
	h12.04v14.04h-12.04v12.12c0,8.72,1.31,9.68,8.81,9.68h3.23v14.74h-8.03c-15.26,0-19.01-5.5-19.01-21.28v-15.26H406.3v12.12
	c0,8.72,1.31,9.68,8.81,9.68h3.23v14.74h-8.03c-15.26,0-19.01-5.5-19.01-21.28v-15.26h-8.55v-13.17c1.92,0,3.23-0.18,4.97-0.52
	c3.23-0.43,4.45-1.83,4.97-6.11c0.26-2.09,0.44-4.8,0.52-6.89L406.3,267.1L406.3,267.1z M549.92,279.05v16.66h-5.93
	c-9.25,0-11.51,3.23-11.51,12.21v22.42h-16.22v-50.59h12.74l2.18,10.38c1.66-7.85,6.8-11.08,15.88-11.08H549.92L549.92,279.05z
	 M678.82,279.75l8.29,12.82l8.28-12.82h17.88l-16.83,24.07l17.97,26.52h-18.14l-9.24-14.3l-9.24,14.3h-18.67L677.78,304
	l-16.92-24.25L678.82,279.75L678.82,279.75z M636.35,292.14c-5.93,0-9.86,4.1-9.86,12.56v1.4c0,7.76,3.92,11.86,9.77,11.86
	c5.84,0,9.68-3.92,9.68-11.86v-1.4C645.94,296.41,642.45,292.14,636.35,292.14z M580.7,291.87c-5.76,0-9.68,4.45-9.68,11.86v1.13
	c0,8.81,3.84,12.91,9.59,12.91c5.84,0,9.42-3.75,9.42-12.65v-1.22C590.03,295.88,586.2,291.87,580.7,291.87z M737.6,291.87
	c-5.93,0-9.42,4.1-9.42,12.04v1.13c0,9.07,3.75,12.74,9.16,12.74c5.84,0,9.68-4.19,9.68-12.74v-1.13
	C747.02,296.24,743.27,291.87,737.6,291.87z M355.28,290.74c-5.93,0-9.33,3.05-10.38,8.98h19.98
	C364.17,294.05,361.21,290.74,355.28,290.74z M484.41,290.74c-5.93,0-9.33,3.05-10.38,8.98H494
	C493.31,294.05,490.34,290.74,484.41,290.74z"/>
</svg>
